<svg width="172" height="283" viewBox="0 0 172 283" fill="none" xmlns="http://www.w3.org/2000/svg">
<path d="M3.60846 3.19739C4.74941 2.18386 6.1048 1.37974 7.59702 0.83108C9.08923 0.28242 10.6889 0 12.3045 0C13.9201 0 15.5198 0.28242 17.012 0.83108C18.5043 1.37974 19.8597 2.18386 21.0006 3.19739L168.392 133.797C169.535 134.808 170.443 136.009 171.062 137.332C171.681 138.654 172 140.071 172 141.503C172 142.934 171.681 144.352 171.062 145.674C170.443 146.996 169.535 148.197 168.392 149.208L21.0006 279.808C18.6943 281.852 15.5662 283 12.3045 283C9.04287 283 5.9148 281.852 3.60846 279.808C1.30212 277.765 0.00643076 274.993 0.00643076 272.103C0.00643076 269.213 1.30212 266.441 3.60846 264.398L142.328 141.503L3.60846 18.6082C2.46463 17.5972 1.55712 16.3962 0.937918 15.074C0.318718 13.7518 0 12.3343 0 10.9028C0 9.47126 0.318718 8.05379 0.937918 6.73157C1.55712 5.40935 2.46463 4.20836 3.60846 3.19739Z" fill="#E5C240"/>
</svg>
