<svg width="172" height="283" viewBox="0 0 172 283" fill="none" xmlns="http://www.w3.org/2000/svg">
<path d="M168.391 279.803C167.25 280.816 165.895 281.62 164.402 282.169C162.91 282.718 161.311 283 159.695 283C158.079 283 156.48 282.718 154.987 282.169C153.495 281.62 152.14 280.816 150.999 279.803L3.60798 149.203C2.46415 148.192 1.55665 146.991 0.937451 145.668C0.31825 144.346 -0.000479082 142.929 -0.000479082 141.497C-0.000479082 140.066 0.31825 138.648 0.937451 137.326C1.55665 136.004 2.46415 134.803 3.60798 133.792L150.999 3.19169C153.305 1.14809 156.433 1.2178e-05 159.695 1.2178e-05C162.957 1.2178e-05 166.085 1.14809 168.391 3.19169C170.697 5.23529 171.993 8.00701 171.993 10.8971C171.993 13.7872 170.697 16.5589 168.391 18.6025L29.6716 141.497L168.391 264.392C169.535 265.403 170.442 266.604 171.062 267.926C171.681 269.248 172 270.666 172 272.097C172 273.529 171.681 274.946 171.062 276.268C170.442 277.591 169.535 278.792 168.391 279.803Z" fill="#E5C240"/>
</svg>
